<?xml version="1.0" encoding="UTF-8"?>
<svg id="Calque_1" data-name="Calque 1" xmlns="http://www.w3.org/2000/svg" xmlns:xlink="http://www.w3.org/1999/xlink" viewBox="0 0 640.97 640.97">
  <defs>
    <style>
      .cls-1 {
        fill: none;
      }

      .cls-2 {
        fill: #e41513;
      }

      .cls-3 {
        fill: #010101;
      }

      .cls-4 {
        fill: #d90f15;
      }

      .cls-5 {
        fill: #be1818;
      }

      .cls-6 {
        fill: #ebe1ce;
      }

      .cls-7 {
        fill: #e31513;
      }

      .cls-8 {
        clip-path: url(#clippath);
      }
    </style>
    <clipPath id="clippath">
      <rect class="cls-1" width="640.97" height="640.97"/>
    </clipPath>
  </defs>
  <g class="cls-8">
    <rect class="cls-3" width="640.97" height="640.96"/>
    <path class="cls-5" d="M426.23,78.97c2.17,0,4.34,0,6.51-.02,1.7,0,3.41,0,5.12,0,.8,0,1.6,0,2.4,0,7.8-.04,14.84.83,21.73,4.71,4.63,2.72,8.12,6.15,10.85,10.76,3.81,6.77,4.36,15.03,4.35,22.65v.82c-.01,3.86-.08,7.72-.15,11.57-.02,1.33-.04,2.65-.07,3.98-.07,3.97-.15,7.95-.32,11.92l-.04.92c-.34,7.07-1.78,13.58-5.5,19.68h-.71l-.1.61c-.31,1.01-.79,1.65-1.43,2.49l-.64.85-.67.69-.75.19-.68.17c-.25.47-.49.94-.71,1.42-.43.38-.87.75-1.31,1.11q-.69.63-1.18,1.38c-.25,1.77.26,3.4.87,5.05l.29.7c.42,1.03.69,2.08.98,3.15l.27.95c.48,1.7.87,3.36,1.16,5.1l.38,1.09c.32,1.01.4,1.77.33,2.83h.71c.69,2.55,1.38,5.09,2.07,7.64.23.86.47,1.73.7,2.59q2.39,8.8,3.03,12.24c.25,1.05.63,2.02,1.02,3.03.64,1.8,1.09,3.65,1.57,5.49l.36,1.34c.25.93.49,1.86.74,2.79.31,1.19.63,2.37.94,3.56.3,1.14.6,2.28.9,3.42l.34,1.28.31,1.2.28,1.05q.2,1.01.2,3.14h-32.4q-2.86-9.8-3.93-13.84l-.56-2.07c-.19-.71-.38-1.42-.57-2.14-.67-2.49-1.33-4.97-2-7.45l-.2-.74c-1.36-5.04-2.75-10.08-4.16-15.11-1.08-3.87-2.15-7.74-3.22-11.62l-.9-3.25-1.19-4.31h-7.12v60.54h-33.47c-.52-1.05-.4-2.1-.4-3.24v-.8c0-.9,0-1.79,0-2.69v-1.94c0-1.41,0-2.82,0-4.23,0-2.3,0-4.6,0-6.89,0-3.34,0-6.69.01-10.03.01-8.95.02-17.9.02-26.86v-1.41c0-22.24-.08-44.48-.18-66.71l-.02-4.19c-.05-11.25-.11-22.5-.16-33.74,2.09-.25,4.14-.42,6.24-.47l.87-.02c.96-.02,1.91-.04,2.87-.06l1.02-.02c8.43-.18,16.86-.22,25.3-.22M256.11,81.96c2.55,1.42,4.83,3.02,7.04,4.93l1.09.82c3.98,3.65,6.48,8.33,8.17,13.42.28,1,.53,2.01.76,3.03l.18.76c.64,2.75.89,5.46.95,8.28l.02.92c.02,1,.04,2,.06,3.01l.02,1.06c.17,8.11.2,16.21.21,24.32,0,1.2,0,2.41,0,3.61,0,3.8,0,7.61,0,11.41,0,4.33,0,8.65.02,12.98,0,3.39.01,6.79.01,10.18,0,2.01,0,4.01,0,6.02.02,7.37,0,14.71-.61,22.07l-.07.79c-.58,6.7-1.87,13.63-5.5,19.41h-.71v1.07h-.71l-.11.67-.24.76-1.07.71-.47.8c-.75,1.21-1.64,2.21-2.74,3.12l-1.07.36-.71.78c-1.4,1.45-3.21,2.24-4.99,3.14l-1.02.55c-7.38,3.74-16.26,4.43-24.4,4.7l-.73.02c-2.38.08-4.61.06-6.97-.29l-1.29.04c-2.1.02-4.11-.51-6.14-.97l-1.29-.29c-6.68-1.56-12.66-3.54-17.98-8.03l-.64-.49c-3.43-2.73-6.15-6.55-7.91-10.55-.44-1.14-.82-2.3-1.18-3.47l-.25-.81c-1.73-6.08-1.96-12.13-2.02-18.41-.01-.88-.02-1.77-.04-2.65-.04-2.71-.06-5.42-.08-8.13v-1.25c-.05-5.61-.07-11.22-.07-16.83v-3.88c0-4.08-.01-8.15-.01-12.23,0-4.66,0-9.31-.02-13.97,0-3.65-.01-7.29-.01-10.94,0-2.16,0-4.32,0-6.48,0-2.02,0-4.04,0-6.05,0-.73,0-1.47,0-2.2-.04-7.79,1.19-14.91,5.08-21.76,1.5-2.55,3.05-4.76,5.38-6.6.37-.58.73-1.18,1.07-1.78q.53-.65,1.07-1.07h1.07l.2-.62c.74-1.17,1.81-1.7,3-2.34l.76-.42c14.81-7.93,39.86-9.2,54.87-1.19"/>
    <path class="cls-6" d="M237.21,312.96c1.55-.03,2.84-.06,4.33.42l.91.53,1.07.59,1.11.63c2.65,1.39,5.3,2.64,8.08,3.74,3.98,1.6,7.07,3.77,10.16,6.72.81.77,1.64,1.48,2.51,2.18,3.21,2.82,5.22,6.81,7.32,10.47.4.68.8,1.36,1.21,2.04,3.11,5.21,4.87,10.31,5,16.42-.04,2.22-.41,4.18-1.07,6.29-.75,2.48-.91,4.73-.91,7.31-.12,5.62-1.54,10.64-4.17,15.61-.89,1.44-1.88,2.76-2.95,4.08-1.31,1.63-2.32,3.33-3.32,5.17l-.49.81-.71.36-.47.8c-.68,1.1-1.45,1.87-2.38,2.76l-.76.87c-1.48,1.32-3.19,2.13-4.94,3.05-.45.26-.91.52-1.36.78-1.07.61-2.16,1.17-3.27,1.71l.36,1.78h.71c2.4,3.04,3.24,6.55,4.09,10.24.16.7.34,1.4.52,2.09.47,1.86.76,3.58.81,5.49.19,2.66,1.13,4.67,2.33,7.03,1.67,3.43,2.98,6.72,4.01,10.39l.26.69c.92,2.47,1.14,4.93,1.36,7.55.16,1.77.33,3.53.51,5.3l.13,1.36c.29,2.6.83,4.86,1.76,7.31,2.18,5.77,2.36,11.26,2.29,17.38-.03,3.44.11,6.35,1.13,9.65.67,2.32,1.02,4.7,1.41,7.07.14.85.28,1.71.43,2.56l.27,1.66.13.76c.25,1.56.33,3.02.29,4.59q-.65-.11-1.42-.36c-2.45-2.33-3.83-5.9-5.37-8.87-1.35-2.51-2.77-4.41-4.84-6.35-1.14-1.11-2.01-2.32-2.87-3.65l-.5-.75c-.46-.7-.92-1.4-1.37-2.1l-.62-.96c-.93-1.5-1.74-3.04-2.51-4.63q-2.27-5.11-5.84-9.24c-.48-.26-.97-.51-1.45-.75q-.61-.45-1.04-1.25c-.22-.59-.42-1.19-.61-1.8-.35-.87-.68-1.4-1.24-2.13-1.02-1.38-1.59-2.79-2.15-4.4l-.32-.88c-.9-2.54-1.63-5.12-2.27-7.73-.5-1.91-1.19-3.2-2.43-4.73-.84-1.1-1.39-2.3-1.95-3.56l-.33-.7c-.38-.82-.74-1.65-1.1-2.48l-.52-1.16c-1.61-3.78-2.42-7.56-3.15-11.59-.59-3.18-1.31-6.09-2.74-9.01l-.36-.74q-.38-.75-1.06-1.72-.7-.41-1.42-.36-1.03.49-2.11,1.18c-2.09,1.19-3.84,1.67-6.26,1.92l-.88.1-.36.36c-.04.61-.07,1.22-.08,1.83l-.03,1.19-.03,1.3c-.11,3.82-.37,7.59-.78,11.4-.35,3.27-.58,6.47-.52,9.76.03,1.85-.2,3.38-.7,5.15-.17.73-.34,1.45-.51,2.18-.6,2.61-1.25,5.21-1.99,7.79h-.71l-.15,1.41c-.18,1.64-.45,3.26-.75,4.89-.35,2-.61,3.96-.71,5.99-.12,2.07-.46,3.95-1.25,5.88l-.71,1.07c-.13.57-.24,1.14-.33,1.71-.27,1.5-.75,2.63-1.45,3.98q-.25,1.33-.36,2.49l-1.07-.36c-.91-1.05-1.34-1.8-1.67-3.15-.18-.96-.33-1.93-.46-2.9-.56,1.11-1.09,2.23-1.6,3.36l-.46,1c-.62,1.41-1.17,2.71-1.44,4.23-.35,1.67-1.01,3.11-1.77,4.63-.43,1.02-.68,2.02-.93,3.09-.4,1.47-1.03,2.85-1.62,4.25-.99,2.39-1.8,4.66-2.28,7.2l-.24.72-1.07.36-.02-.74c-.03-1.15-.07-2.31-.11-3.46-.01-.38-.02-.77-.03-1.17-.07-2.03-.2-4.01-.46-6.02-.44-3.48-.49-6.93-.47-10.44v-.79c.02-2.45.04-4.91.07-7.36q.15-7.91-.85-15.73c-1.6-7.9-.87-16.52.64-24.37.51-3.39.56-6.72.5-10.14-.01-1.28-.03-2.56-.04-3.84-.09-9.27.07-18.45.91-27.69l.12-1.32c.39-4.2.83-8.38,1.4-12.56.33-2.85.13-5.57-.22-8.4-.64-5.29-.62-10.42.45-15.64.3-1.49.51-2.99.62-4.5l-.36-.36c-.03-.68-.05-1.36-.05-2.04v-1.32s0-1.45,0-1.45v-1.49c0-1.05,0-2.09,0-3.14s0-2.12,0-3.18c-.02-5.45-.04-10.82.79-16.23.26-2.82-.19-4.89-1.3-7.52-.88-1.86-2.04-3.35-3.33-4.94l-.71-1.07v-1.07c5.72-.09,11.39.02,17.09.36,6.52.38,12.87.49,19.4-.08,2.65-.23,5.3-.4,7.96-.5l1.02-.04c1.36-.05,2.72-.08,4.09-.13"/>
    <path class="cls-5" d="M360.31,79.36c1.36,0,2.72,0,4.07,0,.88,0,1.77,0,2.65,0h1.2c2.97,0,5.91.18,8.87.4.05,28.33,0,56.65-.12,84.98-.01,2.92-.02,5.84-.03,8.76-.01,3.6-.03,7.21-.04,10.81,0,1.86-.02,3.72-.02,5.58q-.05,18.31-1.63,25.82l-.23,1.11c-1.32,6.08-3.4,11.4-7.58,16.09-4.83,5.17-10.78,8.18-17.48,10.28-8.77,2.46-17.95,3.31-26.98,1.8l-1.1-.18c-7.84-1.33-15.25-3.13-21.54-8.3-1.05-.92-2.03-1.91-3.01-2.92l-.87-.86c-3.89-4.04-5.81-8.79-7.32-14.09l-.34-1.19c-1.98-7.94-1.55-16.53-1.55-24.66,0-1.52,0-3.05-.01-4.57,0-2.63-.01-5.25-.02-7.88,0-3.8-.01-7.6-.02-11.39-.02-6.16-.03-12.33-.04-18.49-.01-8.21-.03-16.42-.05-24.63-.04-15.35-.07-30.7-.1-46.05,4.5,0,9-.01,13.49-.02,2.09,0,4.18,0,6.26,0,2.01,0,4.03,0,6.04,0,.77,0,1.54,0,2.31,0,1.07,0,2.15,0,3.22,0h.97c.75,0,1.49.02,2.24.04l.36.36c.04.67.05,1.34.05,2.02v1.34s0,1.49,0,1.49c0,.52,0,1.04,0,1.56,0,1.44,0,2.88,0,4.32,0,1.55,0,3.1,0,4.65,0,2.69,0,5.38,0,8.07,0,4.25.01,8.51.02,12.76v4.36s.01,1.1.01,1.1c0,4.14.01,8.29.02,12.43v1.15c.01,6.13.02,12.26.02,18.4,0,6.3.02,12.59.03,18.88,0,3.88.01,7.77.01,11.65,0,2.66,0,5.33.01,7.99,0,1.54,0,3.07,0,4.61,0,1.41,0,2.82,0,4.23,0,.51,0,1.01,0,1.52-.01,3.39.11,6.77,1.71,9.83.77,1.26,1.55,2.29,2.77,3.13,2.12,1.13,4.24,1.03,6.58.99,1.9-.08,3.47-.55,5.1-1.53.9-.62,1.28-1.16,1.8-2.12,1.92-4.2,1.87-9.05,1.85-13.58v-1.56c0-1.41,0-2.82,0-4.22,0-1.52,0-3.05,0-4.57,0-2.64,0-5.27,0-7.91,0-3.81-.01-7.62-.01-11.44,0-6.19,0-12.37-.02-18.56v-1.12s0-1.12,0-1.12c0-5.26-.01-10.52-.02-15.78v-1.12c0-6.17-.01-12.34-.02-18.51,0-3.81,0-7.61-.01-11.42,0-2.6,0-5.2,0-7.81,0-1.5,0-3.01,0-4.51,0-1.37,0-2.75,0-4.12,0-.5,0-1,0-1.5,0-.67,0-1.35,0-2.02v-1.14s.04-.84.04-.84l.36-.36c.54-.05,1.07-.09,1.61-.11l1.05-.04,1.16-.04,1.2-.05c4.36-.15,8.72-.17,13.09-.16"/>
    <path class="cls-6" d="M122.81,286.88c1.27.03,2.34.4,3.54.8,1.95.64,3.78.95,5.81,1.14,2.11.2,4.06.5,6.09,1.13,1.2.34,2.41.55,3.63.77,3.4.66,6.26,1.82,9.1,3.78l.68.46c2.88,1.97,5.6,3.94,8.13,6.35.85.71,1.65,1.11,2.65,1.56,1.32.61,2.16,1.23,3.09,2.36.99,1.41,1.55,2.78,2.08,4.41.76,2.04,1.76,3.97,2.74,5.91,1.36,2.76,2.14,5.52,2.7,8.54.22,1.16.51,2.24.92,3.35,1.72,4.73,2.41,9.42,2.96,14.4l.11.99c.45,4.06.79,8.12,1,12.2-2.18-.25-4.32-.62-6.47-1.06-1.43-.28-2.76-.54-4.21-.36-.97.43-1.85.98-2.74,1.56l-.72.44c-1,.62-1.98,1.26-2.96,1.91h-1.07v.71l-.98-.36q-1.18-.43-2.58-.36-.5.6-.87,1.38t-.91,1.47q-1,.53-1.78.71v.71h-1.07l-.16-.82c-.77-3.91-1.6-7.82-2.45-11.72-.37-1.69-.72-3.38-1.06-5.08-.21-1.03-.42-2.06-.63-3.09-.1-.5-.2-.99-.3-1.49q-.6-3.26-2.2-6.11l-.56-.65c-.73-.92-.94-1.95-1.26-3.07-.41-1.01-.69-1.69-1.36-2.51-3.16-2.43-7.49-3.55-11.28-4.64-1.01-.29-2-.65-2.96-1.06l-.46.43c-2.71,2.46-5.71,4.55-8.91,6.33-2.19,1.3-3.77,2.97-5.04,5.17-1.06,2.2-1.71,4.47-2.3,6.84q-.39,1.16-1.09,2.19c-.89,1.36-1.25,2.62-1.64,4.18l-.23.89c-.54,2.16-.88,4.32-1.17,6.52-.32,2.4-.83,4.38-1.86,6.59-.56,1.35-.92,2.7-1.25,4.11l-.18.72c-.98,4.29-.84,8.69-.8,13.06q.06,6.74-.36,9.55l-.18,1.27-.36,2.47c-.24,1.9-.26,3.81-.29,5.72l-.02,1.19c-.02.83-.03,1.66-.04,2.49-.02,1.25-.04,2.5-.07,3.75-.04,2.32-.08,4.65-.11,6.97v.96c-.02.83-.03,1.66-.04,2.49v1.35c.1,2.99.84,5.82,1.78,8.64,1.17,3.59,1.37,6.94,1.37,10.68.01,1.13.03,2.25.04,3.38v.82c.06,3.55.18,6.89,1.41,10.25l.27.79c1.78,5.1,4.75,11.35,8.86,14.9l.86.67c1,.82,1.66,1.77,2.35,2.86.8.89,1.57,1.23,2.69,1.68,1.15.32,2.32.55,3.49.78l.92.19c2.43.48,4.88.82,7.29.1,1.66-.68,2.99-1.82,4.4-2.9,1.15-.78,2.21-1.16,3.55-1.46l.63-.27q.39-.64.71-1.42c.41-.59.84-1.18,1.27-1.76l.77-1.06c.52-.71,1.04-1.42,1.57-2.12,3.51-4.86,6.2-10.23,8.24-15.87.67-1.8,1.37-3.12,2.75-4.48h1.07l.05,1.08.08,1.39.07,1.39c.05.37.1.74.15,1.13l.71.36.26-.8c.77-1.69,2.24-2.67,3.65-3.83l.7-.58q.63-.49,1.79-1.2.96-.04,1.78,0c.12.68.24,1.36.36,2.05l.2,1.15q.16,1.07.16,2.5c1.29-1.21,2.34-2.49,3.39-3.92.73-.99,1.48-1.93,2.31-2.85h.71c-.11,1.3-.22,2.6-.33,3.89l-.09,1.1c-.16,1.91-.35,3.82-.56,5.72-.1.83-.18,1.67-.25,2.5-.14,1.42-.31,2.82-.53,4.23l-.12.9c-.31,2.07-.85,3.64-1.84,5.47-.72,1.5-1.24,3.05-1.78,4.63-.8,2.36-1.64,4.67-2.64,6.96q-.4.91-.69,1.81c-1.33,3.87-4.23,7.03-7.18,9.8l-.91.98q-.87.8-1.87,1.25c-1.44.79-2.26,1.82-3.31,3.06-.74.85-1.55,1.51-2.45,2.19l-.61.67c-.99.92-1.98,1.43-3.19,2.02l-1.25.62c-2.95,1.36-6.06,2.05-9.22,2.74-1.95.44-3.74,1.05-5.59,1.82-1.7.68-3.23.87-5.06.67-1.87-.56-3.63-1.39-5.39-2.2-.79-.35-1.59-.59-2.42-.82-1.91-.59-3.41-1.86-5.01-3.03q-.98-.71-2.14-1.07l-1.98.02c-3.51-.19-6.36-2.24-9.26-4.08-2.93-1.93-5.54-4.07-7.97-6.62-.7-.69-1.41-1.21-2.22-1.76-1.93-1.4-2.87-3.35-3.88-5.46-.68-1.6-1.18-3.23-1.64-4.91-1.21-4.34-3.04-8.09-5.56-11.84-2.8-4.5-4-10.01-4.25-15.28-.09-2.98,0-5.97.06-8.95q.14-5.69-1.63-11.02c-1.49-2.96-2.01-5.84-1.83-9.1.02-.35.04-.69.06-1.05.25-4.79.32-9.58.33-14.37v-1.29c.01-6.6-.06-13.25-1.73-19.69-.57-2.41-.39-5.24.31-7.6.33-.97.71-1.87,1.14-2.8.72-1.78.98-3.56,1.3-5.44q.3-1.22.83-1.84c.75-1.13.79-2.25.89-3.57l.16-1.67.08-.88c.47-5.22,1.04-10.32,2.62-15.34l.31-1c1.44-4.52,3-8.07,6.17-11.63q.69-.83.78-1.72v-.84c.11-1.86.75-2.98,1.75-4.52,1.49-2.33,2.61-4.86,3.63-7.43,1.24-3.03,3-5,5.52-7.03.43-.38.86-.75,1.29-1.14l.72-.63c.62-.54,1.24-1.08,1.85-1.63,5.32-4.65,11.31-8.17,17.65-11.25,2.19-1.06,4.04-2.29,5.9-3.87q1.07-.71,2.09-.85"/>
    <path class="cls-5" d="M155.97,82.61l1.07.54c4,2.15,7.45,5.28,10,9.04,4.08,6.63,5.95,13.04,6.21,20.86l.03,1.36.02.71c.05,1.86.08,3.72.11,5.58l.02.93c.03,1.96.05,3.91.07,5.87,0,.64.01,1.28.02,1.92.01.9.01,1.8.02,2.7v.82q0,.75-.12,2-.46.6-1.07,1.07c-1.03.1-2.06.14-3.09.13h-.96c-1.04,0-2.09,0-3.13-.01h-2.17c-1.52,0-3.04,0-4.55-.02-1.95-.01-3.9-.01-5.85-.02-1.49,0-2.99,0-4.48,0h-2.16c-1,0-2.01-.01-3.01-.02h-.91c-.7,0-1.39-.03-2.09-.06l-.36-.36c-.04-.57-.06-1.13-.06-1.7v-1.1s-.03-1.2-.03-1.2l-.04-2.51c-.02-1.32-.03-2.64-.05-3.97-.01-1.27-.03-2.55-.05-3.83v-1.18c-.06-3.11-.26-6.26-1.25-9.22-1.21-1.69-2.68-3.03-4.56-3.92l-1.09-.22-.68-.14c-2.82-.46-5.73-.03-8.4.97-2.01,1.36-3.02,2.88-4.09,5.02-.82,2.09-.79,4.26-.83,6.47l-.02,1.03c-.02,1.13-.04,2.27-.07,3.4,0,.4-.01.79-.02,1.2-.17,9.4-.16,18.81-.14,28.22.01,4.94.01,9.88.02,14.83v.74c0,9.15-.06,18.3-.19,27.45v.91c-.06,3.44-.12,6.89-.18,10.33h.71l.13.77c.23,1.01.55,1.9.96,2.85q.69,1.64.69,2.43h.71l.76.8c1.46,1.4,2.98,2.18,4.94,2.67,2.47.21,4.77.21,7.12-.62,1.41-.71,2.68-1.51,3.7-2.73,1.46-2.37,1.76-5.1,1.87-7.82l.04-.92c.16-4.18.11-8.37.08-12.55v-.88c0-.56-.01-1.11-.02-1.67,0-.64.01-1.27.03-1.91l.36-.36c.56-.03,1.11-.05,1.67-.05h1.09s1.19,0,1.19,0h1.24c1.34,0,2.67,0,4.01,0h1.37c5.67,0,11.35.05,17.02.2l.82.02c.74.02,1.49.04,2.23.07l1.24.04.9.07.36.36c.04.68.05,1.37.06,2.06v1.34s.01,1.46.01,1.46v.75c0,1.31.01,2.62.01,3.94,0,1.07,0,2.15.01,3.22.08,9.97-.5,19.6-5.38,28.55-2.88,4.83-7.44,8.3-12.27,11.03-8.21,4.48-18.44,5.14-27.63,5.14h-.96c-5.57,0-10.77-.55-16.18-1.94-.33-.08-.66-.16-1-.24-6.11-1.51-11.35-4.15-15.93-8.5-3.89-3.86-6.77-8.44-8.35-13.69-.3-1.16-.56-2.32-.8-3.49l-.18-.83c-1.12-5.81-.86-11.86-.86-17.75v-2.78c-.01-2.5-.01-5-.01-7.5,0-1.57,0-3.13,0-4.7,0-4.35,0-8.7,0-13.04v-4.22c0-4.52,0-9.04-.02-13.56,0-4.66-.01-9.32-.01-13.98,0-2.61,0-5.22,0-7.83,0-2.46,0-4.91,0-7.37,0-.9,0-1.79,0-2.69-.03-9.27.73-18.41,5.24-26.7,2.15-3.73,5.06-6.92,8.43-9.6l.78-.64c6.33-4.83,15.04-6.15,22.72-7.2,11.51-1.4,24.88-.1,35.25,5.34"/>
    <path class="cls-6" d="M590.4,298.05q-.1.66-.36,1.42-.57.42-1.29.78c-1.82,1.06-2.84,2.52-4.05,4.21-.59.72-1.18,1.43-1.78,2.14l-.53.64c-3.22,3.83-6.94,6.89-11.45,9.09l-1.2.6-.36.71c4.09.1,8.05-.19,12.11-.71v.71c-3.05,2.38-6.73,3.87-10.25,5.42l-1.08.48-.97.43q-.88.4-1.55.99c-1.01.7-1.92.84-3.13,1.06l-.7.13c-.75.14-1.5.28-2.26.41l-1.55.29c-3.16.57-6.31,1.04-9.51,1.27-1.43.1-2.6.3-3.89.92v.71c-4.02,2.11-8.91,1.96-13.35,1.82-3.01-.15-6.17-.34-9.09-1.11,0,.23,0,.45.01.69.14,9.74-.73,19.36-1.65,29.05-.3,3.24-.58,6.47-.77,9.71-.14,1.84-.37,3.6-.98,5.35l-.28.81q-.26.68-.61,1.4c4.4-.76,8.38-1.7,12.46-3.56.85-.38,1.7-.77,2.55-1.15.56-.25,1.11-.51,1.67-.76,1.45-.66,2.73-1.12,4.33-1.29l-2.14,2.85c8.31-.84,16.19-1.97,24.21-4.33,3.38-.95,6.8-1.6,10.33-1.37-.37,1.18-.77,1.84-1.6,2.78l-.89.78h-.71l-.29.63c-1.33,2.48-3.63,4.36-5.77,6.14l-1.08.91c-1.52,1.27-3.03,2.53-4.62,3.72l3.92,1.07v1.07q-.82.62-1.98,1.29c-.43.25-.86.51-1.29.76l-.68.4c-.66.39-1.31.79-1.96,1.2-2.37,1.48-4.78,2.81-7.31,4.01l-.77.36c-2.06.95-3.69,1.25-5.95,1.32-2.44.08-4.39.29-6.61,1.35-1.06.42-2.05.53-3.19.66-2.04.26-3.31.9-5,2.02-2.48,1.48-5.52,1.74-8.34,2.11q-1.1.16-2.18.56c-1.02.33-1.76.36-2.82.34l-.03.95c-.27,7.26-1.02,14.22-2.4,21.35-.35,1.82-.64,3.65-.9,5.48l-.12.8c-.15,1.02-.29,2.04-.43,3.06-.39,2.86-.95,5.54-1.85,8.29-.4,1.25-.68,2.48-.93,3.77l-.25,1.26c-.25,1.5-.42,3.01-.57,4.52,1.41-.14,2.82-.29,4.23-.44l1.2-.12c3.95-.44,7.09-1.87,10.54-3.74,3.63-1.88,7.21-2.26,11.25-2.44,4.87-.26,9.65-.72,14.28-2.36,4.06-1.42,7.78-1.77,12.04-1.81,4.05-.04,7.7-.32,11.47-1.94.95-.35,1.71-.4,2.71-.43,2.17-.15,3.78-.94,5.63-2.03v1.42c-.69.7-1.42,1.35-2.18,1.96l-.61.51c-.96.79-1.91,1.5-2.96,2.17-1.06.74-1.73,1.47-2.52,2.48l-.83,1.04-.87,1.09c-1.17,1.44-2.37,2.85-3.56,4.27l-.67.8c-.59.7-1.2,1.38-1.83,2.05l-.66.72c-2.22,2.18-4.75,3.2-7.58,4.35-2.34.96-4.29,2.07-6.29,3.63-3.78,2.9-8.63,4.98-13.38,5.66-1.17.13-2.34.23-3.52.33-1.93.17-3.59.53-5.38,1.29-.8.33-1.57.59-2.39.84-2.4.79-4.55,2.07-6.74,3.3-4.01,2.17-7.71,3.19-12.27,3.07l-1.4-.05c-4.31-.09-8.09-.06-11.99,2.01-2.11,1.28-4.28,2.69-5.66,4.75l-1.22.36c-1.97.67-3.2,2.17-4.59,3.64-.78.81-1.6,1.58-2.46,2.3-1.43,1.22-2.63,2.59-3.83,4.03l-1.42-.36.28-.6c1.16-2.64,1.58-5.24,1.99-8.08.58-3.81,1.35-7.46,2.56-11.12.17-.52.34-1.04.51-1.56l.29-.89c.8-2.68,1-5.28,1.18-8.06.53-7.21,1.98-14.27,3.34-21.36.89-4.65,1.45-9.25,1.81-13.97.2-2.23.46-4.38.93-6.57,1.3-5.99,1.55-11.61,1.42-17.73q-.26-15.43,2.07-19.74l.73-1.07c1.6-2.48,1.92-5.3,2.11-8.19.03-1.59,0-3.17-.03-4.76,0-.93-.02-1.86-.03-2.78-.01-1.44-.03-2.88-.06-4.33-.12-7.11.59-13.15,2.85-19.87,1.65-5.1,1.61-10.55,1.94-15.86q.35-5.6.64-8.31l.14-1.31c.27-1.37.69-2.42,1.3-3.67l.6-.53.47-.53c.1-1.4,0-2.58-.36-3.92,1.22-.65,2.43-1.29,3.65-1.94l1.05-.56,1.01-.53.93-.49c.73-.35,1.48-.6,2.27-.76q.04,2.72-.36,3.92l.59-.16c2.04-.56,4.08-1.11,6.12-1.66.76-.21,1.52-.41,2.28-.62,1.1-.3,2.19-.6,3.29-.89l1.02-.28c1.8-.48,3.36-.76,5.22-.65l.36.71c8.89.69,16.32-.48,24.78-3.18,3.13-.98,6.12-1.27,9.4-1.45q-.13.84-.36,1.78-.73.82-1.42,1.42l.66-.15c1.79-.38,3.54-.64,5.37-.75,4.55-.28,9.02-1,13.51-1.75.33-.05.66-.11,1-.16.96-.16,1.91-.32,2.87-.48l.86-.14c1.73-.3,3.34-.75,4.98-1.34q.65-.21,1.37-.21M487.49,272.41h.71c-.2,3.07-1.15,5.69-2.21,8.56-.73,2.06-1.1,3.74-1,5.92.01,1.34-.33,2.55-.68,3.84l-.2.75c-.27,1.01-.56,2.02-.89,3.01-.03.63-.05,1.27-.07,1.9-.09,3.15-.52,6.18-1.11,9.27l-.22,1.15c-.46,2.28-1.08,4.44-1.84,6.64-1.2,3.63-1.52,7.51-1.58,11.31-.03,1.22-.12,2.05-.7,3.13-.17.26-.35.51-.53.78q-.15,1.1,0,2.14l.71,1.07q.16,1.16,0,2.49c-.48.93-1.04,1.75-1.78,2.49h-.71c-.19.91-.39,1.81-.58,2.72l-.19.9c-.39,1.87-.77,3.75-1.14,5.63q-3.01,15.49-5.57,22.18c-.53,1.49-.83,2.99-1.07,4.55l-.2,1.1c-.24,2.12-.15,4.24-.08,6.37.02,1.52-.01,2.67-.52,4.12l-.62.87-.75.3-.67.42c-.2,1.02-.34,2.05-.4,3.09-.16,2.04-.44,3.84-1.02,5.81-.19,1.04-.34,2.09-.49,3.14-.44,2.84-1.16,5.28-2.54,7.82-.6,1.3-.96,2.59-1.27,3.98l-.19.81c-.36,1.59-.63,3.2-.81,4.82-.34,2.75-.85,5.45-1.38,8.17l-.25,1.32c-.67,3.31-1.82,6.13-3.64,8.97-.57,1.03-.56,1.91-.65,3.06-.22,1.28-.68,2.43-1.16,3.63-.83,2.11-1.53,4.27-2.09,6.48l-.22.87c-.33,1.3-.65,2.6-.95,3.91-.59,2.44-1.35,4.53-2.52,6.73-1.41,2.66-2.11,5.24-2.69,8.18-.26,1.3-.58,2.59-.89,3.88-.33,1.41-.66,2.81-.97,4.22-.45,2.08-1,3.97-1.84,5.92-.57,1.49-.95,3.03-1.33,4.58-.15.58-.3,1.17-.47,1.75l-.36.36h-1.78v-3.56h-.71l-.27,1.31c-.38,1.71-.89,3.37-1.42,5.04-.37,1.19-.72,2.39-1.06,3.59l-.33,1.14c-.22.76-.43,1.51-.65,2.27q-.86,2.98-1.5,4.39c-.48,1.13-.65,2.04-.77,3.26-.44,3.19-1.73,5.98-3.03,8.9-1.46,3.31-2.63,6.67-3.75,10.11l-.54,1.63c-.43,1.31-.86,2.62-1.29,3.93h-.71c-.35-1.06-.44-1.87-.5-2.99-.23-3.8-.47-7.47-1.45-11.15-.52-2-.8-3.98-1.03-6.03-.4-3.37-.97-6.69-1.62-10.02l-.14-.72c-.45-2.27-.91-4.54-1.41-6.8l-.2-.92c-.12-.54-.24-1.07-.37-1.6-.3-1.33-.42-2.52-.38-3.88.03-1.98-.37-3.76-.86-5.67l-.24-.98q-.59-2.44-1.41-4.81c-.58-.37-1.18-.73-1.78-1.07-.68-.82-1.03-1.54-1.21-2.59-.1-.98-.18-1.95-.24-2.93-.15-2.1-.33-4.17-.68-6.26-.43-2.7-.61-5.41-.79-8.13-.29-4.19-.6-8.37-1.31-12.52l-.15-.91c-.32-1.72-.84-3.27-1.49-4.9-.87-2.19-1.38-4.31-1.77-6.63l-.21-1.24c-1.08-6.5-1.9-13.05-2.72-19.59-.07-.58-.15-1.15-.22-1.72-.34-2.69-.62-5.35-.74-8.06-.16-2.84-.72-5.52-1.38-8.28-.33-1.39-.65-2.79-.97-4.19l-.19-.83c-.54-2.41-1.02-4.84-1.44-7.27l-.18-1.01c-.32-1.94-.34-3.55.03-5.49l.36-.71c-.07-3.11-.6-6.22-1.02-9.3-.77-5.77-1.32-11.55-1.83-17.35-.18-2.05-.37-4.11-.55-6.16-.06-.7-.13-1.41-.19-2.11-.18-2.02-.38-4.02-.69-6.02q-.27-4.68.53-6.54l.53-.93h.71v1.07h.71l-.06-.72q-1.59-19.2-.3-24.57l.71.36c.24.82.45,1.64.65,2.47.41,1.64.83,3.13,1.65,4.63.91,1.68,1.45,3.42,2,5.25.54,1.79,1.15,3.55,1.81,5.3l.26.69c.42,1.1.86,2.18,1.33,3.26.41.97.74,1.89,1.01,2.9.46,1.59,1.05,3.1,1.71,4.61q.27.79.27,2.22h.71l.13-1.27c.18-1.41.55-2.64,1.03-3.98,1.06-3.15,1.59-6.39,2.12-9.66.42-2.56.96-5.03,1.7-7.52l1.07.36.11.61c.64,3.63,1.3,7.26,2.07,10.87l.18.86c.23,1.09.47,2.17.71,3.26.44,2.03.68,4.08.91,6.14.19,1.74.44,3.47.72,5.21.44,2.72.72,5.32.66,8.09-.03,1.74.27,3.26.82,4.9l.29.86c.19.55.38,1.11.57,1.66,1.33,3.93,2.17,7.72,2.54,11.86.17,1.79.46,3.32,1.13,5,.77,1.97.87,3.67.8,5.77v.96c-.03,1.32-.1,2.59-.3,3.89-.49,3.7.03,6.86,1.01,10.43.23.88.46,1.77.69,2.65l.33,1.28c.96,3.81,1.42,7.53,1.55,11.45.08,1.9.38,3.62.86,5.45.78,3.04.95,6.08,1.11,9.19.22,4.1.54,8.08,1.4,12.11l.26,1.21c.38,1.82.78,3.63,1.17,5.44l.28,1.25.25,1.13q.18.93.18,2l.71-.36q.29-.95.51-2.12l.29-1.36c.05-.24.1-.48.15-.73.81-3.85,1.72-7.6,2.96-11.34,1.72-5.26,2.65-10.65,3.65-16.08l.14-.74c.09-.49.18-.99.27-1.49.13-.72.27-1.44.4-2.15.08-.41.15-.82.23-1.25.33-1.31.83-2.46,1.37-3.69q.24-.87.37-1.71l.16-.94.16-.98c.12-.7.24-1.4.36-2.09l.18-1.07c.34-1.91.73-3.82,1.13-5.72.33-1.62.6-3.25.82-4.89.2-1.29.46-2.13,1.27-3.16l.89-.8h.71l-.36-1.07c-.27-1.68-.16-3.12.41-4.72.28-.65.55-1.29.84-1.94.84-1.97,1.34-3.96,1.8-6.05.53-2.39,1.16-4.54,2.18-6.78,1.39-3.45,2.26-7.17,3.14-10.78.49-1.99,1.01-3.97,1.56-5.94l.25-.95c.43-1.55.91-2.88,1.75-4.26,1.17-1.99,1.58-4.12,2.07-6.36.75-3.2,1.6-6.28,2.78-9.35,1.09-2.82,1.89-5.62,2.54-8.57.45-2,.96-3.96,1.57-5.92l.22-.71c.34-1.07.69-1.87,1.32-2.81h.71l.27-.62c.51-.92,1.08-1.53,1.87-2.23h.71c-.15,1.28-.32,2.4-.78,3.61l-.29,1.02q.22,1,.71,1.78l.71.36c1.52-2.15,2.74-4.33,3.83-6.72,1.15-2.46,2.33-4.9,3.61-7.3l.44-.82c.3-.57.6-1.13.9-1.7q3.46-6.42,6.49-13.06c.49-1.18.97-2.21,1.83-3.16"/>
    <path class="cls-5" d="M480.72,79.41c7.46,0,14.92-.01,22.38-.02,3.47,0,6.93,0,10.4,0,16.62-.02,33.22.04,49.84.38,0,3.62.01,7.23.02,10.85,0,1.68,0,3.36,0,5.04,0,1.62,0,3.24,0,4.86,0,.62,0,1.24,0,1.86,0,.86,0,1.73,0,2.59v.78c0,.6-.01,1.2-.04,1.81l-.36.36c-.75.03-1.51.04-2.26.04h-.73c-.78,0-1.56,0-2.34,0h-1.44c-1.05,0-2.1,0-3.15,0-2.83,0-5.66-.01-8.49-.02h-5.8s0,.84,0,.84c0,16.61-.01,33.22-.07,49.83l-.03,8.76c-.02,5.2-.03,10.41-.05,15.61l-.05,15.09v.95s-.02,4.73-.02,4.73c-.04,12.93-.09,25.85-.13,38.78-4.27,0-8.53.01-12.8.02-1.98,0-3.96,0-5.94,0-1.91,0-3.82,0-5.73,0-.73,0-1.46,0-2.19,0-1.02,0-2.04,0-3.06,0h-.92c-.71,0-1.42-.01-2.12-.04l-.36-.36c-.03-.71-.05-1.43-.04-2.14v-1.42s0-1.58,0-1.58c0-.55,0-1.11,0-1.66,0-1.53,0-3.06,0-4.59,0-1.65,0-3.29,0-4.94,0-2.86,0-5.71,0-8.57,0-4.13,0-8.26,0-12.39,0-6.7,0-13.4,0-20.1,0-6.51,0-13.02,0-19.53v-7.25c0-16.7.01-33.39.02-50.09h-.9c-2.8,0-5.6.01-8.39.02-1.44,0-2.88,0-4.32,0-1.39,0-2.78,0-4.16,0-.53,0-1.06,0-1.59,0-.74,0-1.48,0-2.22,0h-1.28q-.99-.04-1.7-.4-.39-15.05-.4-22.28v-.73c0-.67,0-1.34,0-2.01v-1.13q.05-.92.4-1.99"/>
    <path class="cls-6" d="M365.75,335.95l1.25.04q5.55.21,7.25,1.23-.07.67-.36,1.42-.91.44-1.78.71l.36,1.42c-.89.47-1.78.94-2.67,1.4l-.75.4c-1.74.89-3.17,1.26-5.12,1.4l.85.12q7.17,1.04,9.12,2.02-.19.79-.71,1.78c-.86.58-1.76,1.1-2.69,1.56l-.82.42c-5.98,2.99-11.82,5.04-18.52,5.58-2.03.18-3.74.59-5.63,1.37-2.85,1.16-5.91,1.17-8.94,1.29-1.71.06-3.37.22-5.06.48-1.25.14-2.49.26-3.74.38l-.98.1c-1.76.17-3.48.27-5.25.24l.33,1.29c.59,2.3.8,4.48.8,6.85v.94c-.03,3.54-.32,7.06-.63,10.58-.1,1.12-.19,2.23-.29,3.35q-.88,10.33-1.64,12.61l.76-.09c1.19-.14,2.37-.27,3.56-.4l1.32-.15c2.36-.26,4.72-.5,7.09-.69,3.49-.28,6.86-.81,10.28-1.56,4.62-.99,8.98-.79,13.6-.02,3.91.62,7.87.68,11.82.76-.55,1.23-1.18,1.88-2.27,2.69q-.64.53-1.2,1.37c-1,1.15-2.04,1.73-3.39,2.42l-.68.37c-1.61.84-3.15,1.32-4.93,1.7v.71h1.12s1.46-.02,1.46-.02h.74c1.2-.01,2.3,0,3.45.38l-.36,1.07-.69.16-.73.2c-.24.47-.48.95-.71,1.42-2.2,2.34-5.09,3.89-8.07,5-3.21.92-6.6,1.11-9.91,1.4-4.58.4-8.74,1.32-13.01,3.06-2.82,1.11-5.36,1.95-8.4,2.18l-.86.11-.71.71c-.59,2.78-.43,5.78-.49,8.61-.12,4.57-.38,9.11-.73,13.66l-.07.88c-.25,3.3-.57,6.57-1.05,9.84-.21,1.63-.32,3.25-.42,4.89q-.09.93-.44,2c0,.68,0,1.37.02,2.05-.03,1-.2,1.95-.38,2.93,2.48-.28,4.79-.72,7.14-1.56,2.47-.87,4.93-1.41,7.5-1.88,1.22-.22,2.36-.45,3.53-.85,2.27-.73,4.64-.72,7-.76,4.09-.09,7.63-.79,11.5-2.07.89-.29,1.77-.57,2.66-.85.56-.18,1.12-.36,1.68-.55,3.58-1.17,7.06-1.54,10.81-1.62,3.07-.09,6.09-.25,9.14-.66,1.66-.22,3.24-.26,4.91-.24-.15.81-.31,1.36-.79,2.04-.68.75-1.37,1.5-2.06,2.24l-.48.51c-3.63,3.83-7.47,6.67-12.34,8.75h-1.07v.71l.61-.03c1.85-.04,3.33.14,5.08.74q-.02.63-.36,1.42c-.79.5-1.62.94-2.47,1.33l-.77.37c-.82.39-1.64.77-2.46,1.15l-.82.38c-1.61.74-3.23,1.46-4.86,2.15-.65.28-1.29.57-1.94.86-2.54,1.09-4.93,1.51-7.66,1.72-1.37.11-2.4.25-3.59.94h-1.07v.71c-3.22,1.44-6.38,2.07-9.88,2.4-2.82.31-5.53.95-8.28,1.63-.79.19-1.57.38-2.36.57l-1.51.37-1.38.34c-1.1.36-1.71.73-2.59,1.45-1.9.59-3.59.79-5.59.85-4.63.2-9.45.94-13.76,2.69-1.21.48-2.45.87-3.69,1.27-1.48.48-2.9.99-4.27,1.74l-1.18.58q-.74-.07-1.42-.36-.71-1.07-.8-2.27c.03-1.27.21-2.49.42-3.74.4-2.57.65-5.15.88-7.74l.13-1.47c.14-1.54.28-3.09.41-4.63.18-2.02.36-4.05.54-6.07l.07-.75c.33-3.67.72-7.32,1.21-10.97.61-4.71.52-9.47.06-14.19-.44-4.69.3-9.36,1.17-13.96.17-1.12.2-2.15.18-3.28l-.02-1.26-.03-1.35c-.01-.97-.02-1.93-.03-2.9-.02-1.51-.04-3.01-.07-4.52-.13-6.48.33-12.41,1.8-18.73.62-2.69.68-5.16.48-7.92-.53-7.92.35-15.3,1.62-23.11.84-5.19,1.4-9.89-.2-14.99l-.36-.71c0-.61-.02-1.22-.02-1.82q-.05-1.07-.33-2.09c-.65-.87-1.34-1.53-2.17-2.22-.7-.64-1.03-1.18-1.39-2.05l.36-.36c.96-.04,1.91-.07,2.87-.07l1.82-.03h.97c4.93-.09,9.77-.22,14.64-1.06,4.52-.72,9.14-.66,13.71-.64,1.01,0,2.01,0,3.02,0,2.13,0,4.26.01,6.39.02,2.48,0,4.96.02,7.44.02.99,0,1.97,0,2.95.01h1.82s.82,0,.82,0c1.62,0,3.19-.11,4.79-.32,3.86-.44,7.93-.06,11.8.08"/>
    <path class="cls-3" d="M234.4,107.05c1.77.78,3.02,1.81,4.18,3.34,1.08,1.73,1.7,3.38,1.83,5.43v.84s.02.97.02.97v1.06s.02,1.13.02,1.13c.01,1.25.02,2.5.03,3.76l.02,2.69c.02,2.43.04,4.86.05,7.28,0,1.26.02,2.53.03,3.79.11,15.1.18,30.2.2,45.3,0,1.39,0,2.78,0,4.17,0,2.19,0,4.38,0,6.56,0,.8,0,1.59,0,2.39.01,3.6,0,7.18-.38,10.77l-.07.76c-.24,2.04-.8,3.94-1.87,5.71-1.38,1.61-2.92,2.69-4.88,3.51-2.52.66-5.55.74-8.08.13-1.98-.81-3.68-2.08-5.09-3.69-1.75-2.53-2.47-5.52-2.85-8.55-.18-2.53-.14-5.06-.13-7.59,0-.76,0-1.51,0-2.27,0-2.04,0-4.08,0-6.12,0-2.15,0-4.3,0-6.45,0-3.61,0-7.23.01-10.84.01-4.61.01-9.22.02-13.83,0-3.99,0-7.99.01-11.98,0-1.27,0-2.53,0-3.8q.01-15.08.19-21.51l.02-1.19c.09-2.72.58-5.15,1.76-7.62,1.03-1.54,2.02-2.74,3.66-3.64,3.77-1.58,7.41-1.83,11.27-.49"/>
    <path class="cls-6" d="M326.89,262.08h13.53l.07,5.8c.01,1.24.03,2.47.04,3.71.02,1.95.05,3.9.07,5.85.05,4.26.1,8.51.18,12.77v.8c.04,1.65.08,3.3.12,4.95l.02,1.21c.07,2.1.27,3.65,1.28,5.51.88,1.11,1.55,1.68,2.85,2.25,2.61.59,5.45.49,8.03-.18,1.12-.39,1.6-.67,2.49-1.49,1.06-1.93.93-3.97.94-6.12v-1.03c.02-.74.02-1.47.03-2.21,0-1.16.02-2.33.03-3.49.02-2.89.05-5.78.07-8.67.02-2.44.04-4.89.06-7.33,0-1.15.02-2.3.02-3.45l.02-2.1v-.98c.01-.75.04-1.49.07-2.24l.36-.36c.92-.06,1.83-.1,2.75-.13l.83-.03c.58-.02,1.17-.03,1.75-.05.9-.02,1.79-.05,2.69-.08.56-.02,1.13-.03,1.69-.05l.82-.03c.64-.02,1.29-.01,1.93,0l.36.36c.03.5.05,1.01.05,1.51v.99s0,1.1,0,1.1v1.15c.01,1.26.01,2.52.01,3.78v2.63c0,1.84.01,3.68.01,5.52,0,2.35.01,4.7.02,7.05,0,1.81,0,3.62,0,5.43,0,.87,0,1.73,0,2.6,0,1.22,0,2.44,0,3.65v1.07c0,3.28-.58,6.34-2.17,9.22-1.45,2.21-3.06,3.55-5.41,4.74-4.35,1.81-8.59,1.99-13.24,2h-1.35c-4.41-.03-9.18-.28-13.21-2.25-2.74-1.93-4.91-4.5-6.42-7.49-1.33-3.22-1.52-6.71-1.5-10.15v-1.18c0-1.27,0-2.55.01-3.82v-2.67c0-2.33.01-4.66.02-6.98,0-2.38.01-4.76.01-7.14,0-4.66.02-9.32.03-13.99M309.09,265.29c2.53,1.44,4.79,3.11,6.3,5.64,3.2,6.15,2.68,13.01,2.69,19.78,0,1.22.01,2.44.03,3.67,0,.79,0,1.58,0,2.37v1.09c0,3.89-1.08,7.34-2.92,10.74-1.59,2.71-3.92,4.81-6.64,6.37-5.69,2.81-11.02,2.95-17.27,2.69-3.97-.31-7.55-1.93-10.83-4.14-2.28-1.83-3.86-4.27-4.94-6.97-.83-2.44-1.36-4.65-1.38-7.23v-1.4c-.02-.5-.02-1-.02-1.51v-.77c-.01-1.35-.02-2.71-.02-4.06,0-1.39-.02-2.77-.03-4.15,0-1.08-.01-2.15-.01-3.23,0-.51,0-1.02-.01-1.53-.05-4.47.67-8.64,2.82-12.61,1.53-2.32,3.41-3.95,5.86-5.25,1.89-.86,3.66-1.39,5.72-1.62l1-.12c6.58-.63,13.62-.82,19.65,2.25"/>
    <path class="cls-3" d="M299.8,274.99c1.26.46,1.94,1.07,2.87,2.05.69,1.01,1.04,1.86,1.17,3.08.04,1.18.05,2.35.04,3.53v1.31c0,.91,0,1.83,0,2.74,0,1.39,0,2.79,0,4.18,0,.89,0,1.78,0,2.67v1.26c-.01,2.31-.22,4.06-1.21,6.16-.7,1.06-1.3,1.85-2.39,2.5-1.67.73-3.32.88-5.13.83-1.99-.24-3.93-.82-5.57-2-.8-.76-1.16-1.35-1.51-2.4-.03-.64-.05-1.27-.05-1.91v-1.18s0-1.28,0-1.28v-1.32c0-.92,0-1.84,0-2.76,0-1.4,0-2.81-.01-4.21,0-.89,0-1.79,0-2.68v-1.27c0-2.19.11-4.1.79-6.18.77-1.25,1.31-1.87,2.58-2.58,2.84-1.26,5.44-1.28,8.44-.53M424.46,107.18c1.51-.1,3.03-.1,4.55-.11.76,0,1.51-.02,2.27-.04,2.52-.03,4.73.1,7.07,1.15,1.56.92,2.7,2.11,3.66,3.63,1.23,2.3,1.38,4.55,1.38,7.14v.85c.01.92.01,1.84.02,2.76v.96c0,1.67.01,3.35.01,5.02,0,1.72.01,3.44.02,5.17,0,1.33,0,2.66,0,3.99,0,.63,0,1.27,0,1.9.02,3.51.05,6.57-1.65,9.75-1.52,2.01-3.34,3.36-5.59,4.48-2.56.37-5.08.41-7.66.4h-1.18s-1.12,0-1.12,0h-1.02s-.77-.05-.77-.05l-.36-.36c-.03-.6-.05-1.2-.05-1.8v-1.18s0-1.31,0-1.31v-1.37c0-1.24,0-2.48,0-3.72,0-1.3,0-2.59,0-3.89,0-2.18,0-4.35,0-6.53,0-2.52,0-5.04,0-7.56,0-2.16,0-4.32,0-6.48,0-1.29,0-2.58,0-3.87,0-1.44,0-2.88,0-4.32v-1.31s0-1.18,0-1.18v-1.03l.05-.77.36-.36ZM221.85,340.07c1.19-.04,2.39-.07,3.58-.09l1.02-.04q2.49-.03,3.62.44c.6.35,1.17.73,1.75,1.11q.83.27,1.6.38c1.07.2,1.78.42,2.78.89,1.55.61,2.91.67,4.56.72,1.19.17,1.84.5,2.8,1.21,1.5,1.9,2.3,4.4,3.15,6.65.62,1.61,1.3,3.04,2.41,4.36.65.98.71,1.7.85,2.87.09,3.8-.25,7.41-1.44,11.02-.31.99-.5,1.92-.66,2.95-.31,1.72-1.08,3-2.03,4.45q-.56.82-1,1.91c-.92,1.62-1.93,2.75-3.43,3.87-1.39.79-2.84,1.47-4.28,2.16-2.13,1.02-4.14,2.14-6.14,3.4-2.04,1.28-4.09,2.48-6.23,3.56l-.69.36c-1.35.66-2.55.98-4.02,1.2,0-2.11-.02-4.23-.02-6.35,0-.72,0-1.44,0-2.16,0-1.04,0-2.08,0-3.11v-.96q0-5.11.75-7.37c-.09-.64-.17-1.27-.26-1.91-.27-2.75-.2-5.53.18-8.27.25-2.47.22-4.97.27-7.45.07-2.69.31-5.27.73-7.93.22-1.62.23-3.21.2-4.85v-.91c-.02-.72-.03-1.44-.04-2.16"/>
    <path class="cls-2" d="M537.34,106.83l7.48.36.36.71h-6.41v1.63c.03,16.99-.02,33.99-.08,50.98v.87c-.03,7.39-.05,14.78-.08,22.17l-.05,12.87v.93s-.02,4.6-.02,4.6c-.04,12.57-.09,25.14-.13,37.71h-.71c-.57-2.65-.81-5.17-.8-7.88v-1.15c0-1.26,0-2.53,0-3.79v-2.73c0-2.22,0-4.44,0-6.66,0-2.62,0-5.23,0-7.85,0-4.71,0-9.41,0-14.12,0-4.49,0-8.98,0-13.47,0-25.06.04-50.11.42-75.17M120.67,77.61h1.24s.94.02.94.02v.36c-.31.05-.62.11-.93.16q-12.66,1.83-23.79,7.59c-1.19,1.05-2.3,2.16-3.41,3.29l-.9.89c-3.8,3.95-5.97,8.82-7.32,14.09-1.2,5.1-1.25,10.12-1.22,15.34,0,1.28,0,2.56,0,3.83,0,2.49,0,4.99,0,7.48,0,2.91,0,5.82,0,8.73,0,5.2,0,10.39.01,15.59,0,5.03.01,10.06,0,15.09,0,6.08,0,12.16,0,18.24v.87c0,2.02,0,4.05,0,6.07,0,2.47,0,4.94,0,7.41,0,1.26,0,2.51,0,3.77q-.08,6.9,1.21,13.64l.21.79c1.28,4.74,3.54,8.97,6.96,12.51,5.56,5.13,11.66,7.76,18.99,9.43,2.2.48,4.37.9,6.61,1.13l1.13.12c10.82.94,22.79.36,32.77-4.3,2.85-1.39,5.3-3.06,7.76-5.07l.78-.58c3.17-2.48,5.36-6.57,6.93-10.22,2.57-7,2.71-14.22,2.97-21.6h.71v-2.49h.71q.23,12.72-1.07,18.16l-.18.77c-1.34,5.51-3.46,10.75-7.36,14.95-3.83,3.92-8.86,7.39-14.15,9-7.38,2.02-14.8,2.85-22.42,2.85h-.96c-5.57,0-10.77-.55-16.18-1.94-.33-.08-.66-.16-1-.24-6.11-1.51-11.35-4.15-15.93-8.5-3.89-3.86-6.77-8.44-8.35-13.69-.3-1.16-.56-2.32-.8-3.49l-.18-.83c-1.12-5.81-.86-11.86-.86-17.75v-2.78c-.01-2.5-.01-5-.01-7.5,0-1.57,0-3.13,0-4.7,0-4.35,0-8.7,0-13.04v-4.22c0-4.52,0-9.04-.02-13.56,0-4.66-.01-9.32-.01-13.98,0-2.61,0-5.22,0-7.83,0-2.46,0-4.91,0-7.37,0-.9,0-1.79,0-2.69-.03-9.27.73-18.41,5.24-26.7,2.15-3.73,5.06-6.92,8.43-9.6l.78-.64c5.95-4.54,15.28-6.94,22.68-6.86"/>
    <path class="cls-2" d="M136.14,106.89c1.07.68,1.64,1.38,2.25,2.49q.33.73.49,1.36l-.36.71-.6-.74q-1.73-2.14-4.03-3.55-.7-.2-1.42-.33c-.24-.05-.48-.11-.73-.16-2.4-.4-4.75,0-7.11.52-1.69.64-2.76,1.46-3.92,2.85-1.79,3.02-2.18,5.65-2.25,9.11l-.02,1.03c-.02,1.13-.04,2.27-.07,3.4,0,.4-.01.79-.02,1.2-.17,9.4-.16,18.81-.14,28.22.01,4.94.01,9.88.02,14.83v.74c0,9.15-.06,18.3-.19,27.45v.91c-.06,3.44-.12,6.89-.18,10.33h.71l.13.77c.23,1.01.55,1.9.96,2.85q.69,1.64.69,2.43h.71l.76.8c1.46,1.4,2.98,2.18,4.94,2.67,2.47.21,4.77.21,7.12-.62,1.42-.72,2.71-1.5,3.7-2.77.68-1.15,1.19-2.39,1.64-3.64q.22.6.36,1.42c-.48,1.59-1.27,3.02-2.41,4.23-1.73,1.41-3.58,2.18-5.78,2.54-2.53.22-4.93.29-7.32-.62-.53-.25-1.06-.52-1.58-.8l-1.13-.58c-1.54-1.3-2.58-2.61-3.49-4.41-1.32-4.72-1.22-9.56-1.2-14.41,0-.82,0-1.65,0-2.47,0-2.22,0-4.45,0-6.67,0-2.34,0-4.68,0-7.01,0-3.93,0-7.85.01-11.78,0-4.02.01-8.05.01-12.07v-3.74c0-4.09,0-8.18.01-12.27v-4.15c0-2.18,0-4.37.01-6.55,0-.8,0-1.59,0-2.39,0-3.69.03-7.37.2-11.06l.04-.82c.12-2.21.51-4.15,1.6-6.09,1.03-1.54,2.18-2.77,3.81-3.69,4.38-1.86,9.48-1.52,13.75.56"/>
    <path class="cls-2" d="M234.66,106.12c1.57.55,2.62,1.21,3.83,2.36,1.8,2.44,2.4,5.24,2.8,8.2.34,3.26.24,6.56.23,9.83v2.49c0,2.24,0,4.48,0,6.72,0,2.11,0,4.23,0,6.34,0,4.44,0,8.88,0,13.32,0,3.8,0,7.6,0,11.39,0,4.42,0,8.85,0,13.27,0,2.34,0,4.67,0,7.01,0,2.2,0,4.4,0,6.6,0,.8,0,1.6,0,2.41,0,3.63-.02,7.25-.4,10.87l-.08.77c-.29,2.38-1.1,4.37-2.47,6.33-1.43,1.72-3.15,2.52-5.22,3.29-2.19.72-4.23.87-6.53.63-1.52-.43-2.88-1.04-4.27-1.78l-.81-.42c-1.27-.79-1.96-1.59-2.74-2.88-1.96-3.69-2.62-6.74-2.57-10.88v-1.28c.04-3.4.17-6.79.42-10.18h.71l.02,1.2c.02,1.49.05,2.98.08,4.46.01.64.02,1.28.03,1.92.06,4.83.15,9.73,2.54,14.08,1.08,1.57,2.4,2.66,4.01,3.66,2.33,1.09,5.06.88,7.56.68,2.02-.39,3.77-1.16,5.34-2.49,1.2-1.43,2.15-2.9,2.6-4.72.58-3.58.65-7.2.65-10.82v-1.29c0-1.16,0-2.33,0-3.5,0-1,0-1.99,0-2.99,0-3.24,0-6.48,0-9.72,0-1.12,0-2.24,0-3.36,0-14.66-.03-29.32-.14-43.98-.01-1.64-.02-3.28-.03-4.92,0-1.91-.02-3.82-.04-5.73,0-.69,0-1.38-.01-2.07q.05-4.85-1.25-9.48c-.94-1.56-2.13-2.77-3.69-3.71-2.13-.94-4.31-1.35-6.64-1.28-2.58.32-5.02.93-7.14,2.49-1.36,1.41-2.14,3.17-2.83,4.99-.36,1.47-.42,2.89-.46,4.4l-.02.75c-.03,1.05-.05,2.1-.08,3.15-.02.77-.04,1.54-.06,2.31l-.03,1.39c-.05.94-.15,1.71-.42,2.6h-.71c-.31-2.86-.43-5.69-.44-8.57l-.02-1.19c-.01-3.11.44-5.76,1.98-8.49.96-1.41,2.03-2.54,3.47-3.47,4.48-2.16,8.05-2.01,12.82-.71"/>
    <path class="cls-2" d="M475.74,141.37h.71c.22,8.14-.48,15.72-4.41,22.99-.31.53-.62,1.06-.93,1.58h-.71l-.1.61c-.31,1.01-.79,1.65-1.43,2.49l-.64.85-.67.69-.75.19-.68.17c-.25.47-.49.94-.71,1.42-.43.38-.87.75-1.31,1.11q-.69.63-1.18,1.38c-.25,1.77.26,3.4.87,5.05l.29.7c.42,1.03.69,2.08.98,3.15l.27.95c.48,1.7.87,3.36,1.16,5.1l.38,1.09c.32,1.01.4,1.77.33,2.83h.71c.69,2.55,1.38,5.09,2.07,7.64.23.86.47,1.73.7,2.59q2.39,8.8,3.03,12.24c.25,1.05.63,2.02,1.02,3.03.64,1.81,1.09,3.68,1.57,5.53l.36,1.35c.25.93.49,1.87.74,2.8.31,1.2.63,2.39.94,3.59.3,1.14.6,2.29.9,3.44l.34,1.3.31,1.2c.09.35.18.7.28,1.06q.2.88.2,1.95h-.71v-1.07h-1.07q-5.59-20.88-7.29-27.75c-.31-1.22-.65-2.42-.99-3.63l-.24-.85-.74-2.67-.98-3.52c-.07-.27-.15-.54-.23-.81q-.54-1.93-.74-2.75c-.23-.9-.48-1.8-.74-2.69l-.34-1.18-.37-1.27-.77-2.67-1.21-4.2c-.39-1.35-.78-2.71-1.17-4.06l-.36-1.26c-.62-2.18-1.19-4.35-1.65-6.57l1.07-.89c3.94-3.31,6.99-6.54,9.26-11.22l.56-1.13c2.4-5.19,3.15-10.61,3.64-16.26.12-1.21.27-2.41.43-3.61M320.48,118.58l.71.36v3.56h.71v1.31c.02,11.55.05,23.11.09,34.66v.77c.01,4.08.02,8.16.03,12.24,0,4.19.02,8.38.03,12.57,0,2.35.01,4.7.02,7.06,0,2.22,0,4.43.02,6.65,0,.81,0,1.62,0,2.43q-.14,6.33,1.73,12.29c.76,1.27,1.55,2.3,2.77,3.14,2.12,1.13,4.24,1,6.58.97,1.81-.06,3.43-.46,5.11-1.15-.74.81-1.35,1.29-2.38,1.67-2.48.76-5.04.74-7.59.47-2.02-.59-3.33-1.82-4.76-3.32-1.48-1.8-2.12-3.26-2.55-5.54-.65-4.26-.62-8.5-.6-12.8v-2.54c0-2.28,0-4.57,0-6.85,0-2.15,0-4.3,0-6.44,0-4.25,0-8.5.01-12.75,0-4.13.01-8.25.01-12.38v-.77s0-3.84,0-3.84c0-10.59.02-21.18.04-31.76"/>
    <path class="cls-2" d="M374.96,205.46h.71c1.04,6.12-.52,12.54-2.63,18.29-2.06,5.33-5.45,9.5-9.84,13.11-6.18,4.71-14.24,6.97-21.77,8.32-6.12.69-12.39.81-18.47-.2l-1.1-.18c-7.84-1.33-15.25-3.13-21.53-8.3-1.05-.92-2.03-1.91-3.01-2.92l-.87-.86c-2.97-3.08-4.96-6.73-6.4-10.75-.22-.91-.25-1.7-.21-2.64.76.76,1.01,1.42,1.37,2.42,1.71,4.69,4.36,9.09,8.2,12.33,6.8,5.46,14.02,8.09,22.55,9.46,3.06.45,6.1.52,9.19.5.93,0,1.86,0,2.79,0,5.16,0,10.08-.65,15.03-2.17l.89-.27c2.95-.94,5.64-2.26,8.34-3.76l.98-.51c3.74-2.04,7.47-5.47,9.7-9.11,2.92-5.47,4.47-10.96,5.28-17.07.08-.56.15-1.12.23-1.68.19-1.35.37-2.69.55-4.04"/>
    <path class="cls-2" d="M184.1,189.44h.36c.3,2.35.42,4.65.44,7.02l.04,2.21c.02,1.14.03,2.29.05,3.43q-.02,9.08,1.86,17.9c.09.28.18.55.28.84,1.31,3.79,2.99,7.19,5.63,10.24q.61.74.95,1.51l.36.66c.47.25.94.49,1.42.71.49.43.98.86,1.45,1.31,3.11,2.8,6.39,4.4,10.3,5.81.84.34,1.66.7,2.49,1.07v.71c-5.23-.84-9.92-3.5-14.04-6.73-3.76-3.18-6.93-7.28-8.71-11.89-.31-.88-.6-1.77-.87-2.66l-.25-.81c-.27-.94-.49-1.89-.71-2.84l-.29-1.27c-1.04-5.09-.99-10.27-1.04-15.45-.01-.99-.03-1.99-.04-2.98-.02-1.19-.03-2.38-.05-3.57l-.02-1.34v-1.23s-.02-1.09-.02-1.09q.04-.85.39-1.57"/>
    <path class="cls-2" d="M558.43,79.73h.87s.9.01.9.01h.91c.74,0,1.48.02,2.23.02,0,3.62.01,7.23.02,10.85,0,1.68,0,3.36,0,5.04,0,1.62,0,3.24,0,4.86,0,.62,0,1.24,0,1.86,0,.86,0,1.73,0,2.59v.78c0,.6-.01,1.2-.04,1.81l-.36.36c-.98.03-1.94.04-2.92.03h-.88c-.94,0-1.87,0-2.81-.01-.63,0-1.27,0-1.9,0-1.56,0-3.11-.01-4.67-.02l-.36-.71,12.11-.36c.52-1.04.4-1.95.4-3.11v-.75c0-.82,0-1.63,0-2.45v-1.7c0-1.49,0-2.98-.01-4.47,0-1.52,0-3.04,0-4.56,0-2.98,0-5.97-.02-8.95l-.96.03-1.26.02-1.25.02c-1.09-.07-1.67-.21-2.58-.78.98-.33,1.56-.4,2.57-.39"/>
    <path class="cls-2" d="M246.42,78.7c.89.11,1.68.27,2.54.49l.76.19c5.91,1.63,11.11,5.18,15.57,9.29,3.52,3.59,5.96,8.37,7.33,13.2.19.75.37,1.51.55,2.26l.18.8c.41,1.81.7,3.6.84,5.46l-1.07.36-.25-.96q-3-11.65-9.65-21.57c-4.76-4.53-11.34-6.93-17.52-8.81l.71-.71ZM454.73,80.83c1.87.2,3.28.82,4.92,1.67l.76.39c4.69,2.43,8.51,5.46,11.4,9.93,3.31,5.39,4.87,11.25,5.05,17.58.02,2.06-.02,4-.41,6.03h-.36l-.04-.62c-.65-8.97-2.43-16.94-7.36-24.6-1.07-1.54-2.19-2.79-3.64-3.98l-.85-.7c-2.15-1.67-4.43-2.9-6.88-4.06q-1.83-.87-2.6-1.64"/>
    <path class="cls-2" d="M148.85,80.12c2.67.23,4.76,1.3,7.12,2.49l1.09.55c3.99,2.16,7.44,5.28,9.99,9.03,2.48,4.03,4.38,7.82,5.31,12.5l.24,1.2c.47,2.7.55,5.33.47,8.06h-.71c-.54-1.7-.85-3.33-1.06-5.1-.7-5.79-2.3-11.39-5.71-16.21-.69-.87-1.4-1.71-2.13-2.55l-.51-.66c-3.16-4.05-7.67-6-12.28-7.92-.74-.32-1.46-.67-2.17-1.04l.36-.36Z"/>
    <path class="cls-2" d="M217.57,77.98l1.07.71-2.05.51-2.9.73c-6.11,1.53-11.52,3.11-16.34,7.37q-.79.65-1.85,1c-.25.47-.48.94-.71,1.42-.48.59-.97,1.18-1.47,1.76-2.63,3.17-4.95,6.78-6.39,10.66l-.33.76-1.07.71c1.05-4.64,3.67-9.23,6.77-12.82.59-.48,1.18-.95,1.78-1.42.37-.58.73-1.18,1.07-1.78q.53-.65,1.07-1.07h1.07l.2-.62c.74-1.17,1.81-1.7,3-2.34l.76-.42c4.38-2.34,8.93-4.01,13.84-4.81l1.32-.25,1.17-.11Z"/>
    <path class="cls-2" d="M481.44,86.89h.36v17.09h-.71v1.78h-.36c-.06-1.91-.12-3.81-.17-5.72-.02-.65-.04-1.29-.06-1.94q-.25-7.92.23-10.15l.71-1.07Z"/>
    <path class="cls-2" d="M423.04,106.83l1.07.36c.02,1.47.03,2.94.04,4.41l.02,1.27v1.21s.02,1.12.02,1.12l-.08.9-.71.71c-.13-1.26-.25-2.52-.38-3.78l-.11-1.08c-.17-1.78-.29-3.35.13-5.11M423.04,180.89h8.19l.36.71-7.48.36v4.99h-.71c-.61-1.95-.38-4.04-.36-6.05"/>
    <path class="cls-4" d="M428.69,180.87h.74c.6,0,1.2.02,1.79.02l.36.71-1.16.07-1.53.09-.76.04c-1.6.1-3.16.27-4.74.51l.36-1.07c1.66-.33,3.26-.4,4.94-.38"/>
    <path class="cls-2" d="M273.48,197.63l1.07.36c0,.58.02,1.16.02,1.74v.98q-.02.85-.38,1.56h-.71v-4.63ZM439.77,108.61c.95.37,1.47.76,2.18,1.51.71,1.05,1.08,1.89,1.38,3.12q.04,1.2,0,2.14c-.35-.7-.7-1.4-1.04-2.1-.78-1.59-1.62-3.13-2.52-4.67"/>
    <path class="cls-7" d="M341.49,209.38q.22.61.36,1.42c-.51,1.68-1.34,3.3-2.49,4.63l-1.07-.36.65-.57c.89-.98,1.27-1.85,1.75-3.08l.46-1.16.34-.88Z"/>
  </g>
</svg>